<?xml version="1.0" encoding="UTF-8"?>
<svg xmlns="http://www.w3.org/2000/svg" version="1.1" width="300" height="300" viewBox="0 0 300 300"><rect x="0" y="0" width="300" height="300" fill="#fefefe"/><g transform="scale(8.108)"><g transform="translate(4,4)"><path fill-rule="evenodd" d="M10 0L10 2L11 2L11 0ZM12 0L12 1L13 1L13 2L12 2L12 4L18 4L18 3L13 3L13 2L17 2L17 1L15 1L15 0L14 0L14 1L13 1L13 0ZM18 0L18 2L19 2L19 5L18 5L18 8L16 8L16 7L17 7L17 5L15 5L15 6L14 6L14 5L11 5L11 6L10 6L10 4L11 4L11 3L8 3L8 4L9 4L9 5L8 5L8 7L9 7L9 8L6 8L6 9L7 9L7 10L5 10L5 11L3 11L3 12L2 12L2 9L5 9L5 8L0 8L0 9L1 9L1 12L0 12L0 15L1 15L1 16L0 16L0 21L1 21L1 18L3 18L3 20L2 20L2 21L3 21L3 20L4 20L4 21L7 21L7 20L6 20L6 19L7 19L7 18L8 18L8 19L9 19L9 18L11 18L11 17L12 17L12 18L13 18L13 17L16 17L16 18L14 18L14 20L13 20L13 19L10 19L10 20L8 20L8 23L9 23L9 24L8 24L8 29L9 29L9 27L10 27L10 28L11 28L11 27L10 27L10 26L9 26L9 24L10 24L10 25L11 25L11 26L13 26L13 25L14 25L14 26L15 26L15 27L16 27L16 28L12 28L12 29L18 29L18 28L17 28L17 27L16 27L16 26L17 26L17 25L18 25L18 26L19 26L19 25L18 25L18 24L19 24L19 23L20 23L20 27L19 27L19 28L22 28L22 27L23 27L23 26L24 26L24 27L26 27L26 26L24 26L24 25L27 25L27 28L24 28L24 29L27 29L27 28L28 28L28 26L29 26L29 23L27 23L27 22L29 22L29 20L28 20L28 19L27 19L27 16L28 16L28 15L27 15L27 12L28 12L28 11L27 11L27 12L25 12L25 9L26 9L26 8L25 8L25 9L24 9L24 8L23 8L23 9L22 9L22 8L20 8L20 9L18 9L18 8L19 8L19 5L20 5L20 3L21 3L21 0ZM8 1L8 2L9 2L9 1ZM19 1L19 2L20 2L20 1ZM9 6L9 7L10 7L10 6ZM11 6L11 7L12 7L12 9L11 9L11 8L10 8L10 9L9 9L9 11L8 11L8 12L7 12L7 11L5 11L5 12L4 12L4 13L5 13L5 14L8 14L8 13L9 13L9 12L11 12L11 13L10 13L10 16L7 16L7 15L4 15L4 17L5 17L5 16L7 16L7 17L6 17L6 18L4 18L4 20L5 20L5 19L6 19L6 18L7 18L7 17L10 17L10 16L11 16L11 14L13 14L13 15L12 15L12 16L14 16L14 14L17 14L17 12L19 12L19 13L20 13L20 14L18 14L18 15L17 15L17 16L18 16L18 17L17 17L17 20L16 20L16 21L15 21L15 20L14 20L14 21L13 21L13 20L10 20L10 21L9 21L9 23L11 23L11 24L12 24L12 25L13 25L13 24L14 24L14 25L15 25L15 26L16 26L16 25L17 25L17 24L18 24L18 23L16 23L16 24L15 24L15 22L16 22L16 21L17 21L17 22L19 22L19 20L21 20L21 19L22 19L22 18L21 18L21 17L20 17L20 16L21 16L21 14L22 14L22 17L23 17L23 18L24 18L24 19L25 19L25 21L26 21L26 20L27 20L27 19L25 19L25 18L24 18L24 17L26 17L26 16L27 16L27 15L26 15L26 13L25 13L25 12L24 12L24 9L23 9L23 12L22 12L22 13L20 13L20 12L21 12L21 11L22 11L22 10L21 10L21 9L20 9L20 10L19 10L19 11L18 11L18 10L17 10L17 9L16 9L16 8L15 8L15 7L16 7L16 6L15 6L15 7L14 7L14 6L13 6L13 7L12 7L12 6ZM20 6L20 7L21 7L21 6ZM13 8L13 9L12 9L12 10L13 10L13 9L14 9L14 10L15 10L15 11L14 11L14 12L13 12L13 11L12 11L12 13L15 13L15 11L16 11L16 12L17 12L17 10L15 10L15 9L14 9L14 8ZM27 8L27 9L28 9L28 10L29 10L29 9L28 9L28 8ZM10 9L10 11L11 11L11 9ZM1 12L1 13L2 13L2 14L3 14L3 13L2 13L2 12ZM6 12L6 13L7 13L7 12ZM23 12L23 13L22 13L22 14L23 14L23 13L24 13L24 14L25 14L25 13L24 13L24 12ZM28 13L28 14L29 14L29 13ZM15 15L15 16L16 16L16 15ZM23 15L23 16L24 16L24 15ZM1 16L1 17L3 17L3 16ZM19 17L19 18L18 18L18 20L17 20L17 21L18 21L18 20L19 20L19 18L20 18L20 17ZM28 17L28 18L29 18L29 17ZM11 21L11 22L12 22L12 24L13 24L13 23L14 23L14 22L15 22L15 21L14 21L14 22L13 22L13 21ZM21 21L21 24L24 24L24 21ZM22 22L22 23L23 23L23 22ZM25 23L25 24L27 24L27 25L28 25L28 24L27 24L27 23ZM22 25L22 26L21 26L21 27L22 27L22 26L23 26L23 25ZM0 0L0 7L7 7L7 0ZM1 1L1 6L6 6L6 1ZM2 2L2 5L5 5L5 2ZM22 0L22 7L29 7L29 0ZM23 1L23 6L28 6L28 1ZM24 2L24 5L27 5L27 2ZM0 22L0 29L7 29L7 22ZM1 23L1 28L6 28L6 23ZM2 24L2 27L5 27L5 24Z" fill="#000000"/></g></g></svg>
